# xmcd CD database file
#
# Track frame offsets:
#	150
#	4377
#	23367
#	41907
#	57172
#	82877
#	108837
#	129342
#	146187
#	169952
#	193787
#	220775
#	247150
#	263967
#	277820
#	299192
#
# Disc length: 4223 seconds
#
# Revision: 1
# Processed by: cddbd v1.4PL0 Copyright (c) Steve Scherf et al.
# Submitted via: CDex 1.50Beta7
#
DISCID=f0107d10
DTITLE=Paul Meader and Robin Nolan - The Gypsy Jazz Play Along CD - Volume 1
DYEAR=2000
DGENRE=Jazz
TTITLE0=Six string tune up
TTITLE1=Djangology
TTITLE2=Minor Swing (slow)
TTITLE3=Minor Swing (medium)
TTITLE4=It Don't Mean A Thing
TTITLE5=Django's Castle
TTITLE6=Sweet Georgia Brown (slow)
TTITLE7=Sweet Georgia Brown (medium)
TTITLE8=Honeysuckle Rose
TTITLE9=Oh, Lady Be Good
TTITLE10=Nuages
TTITLE11=Douce Ambiance
TTITLE12=Blues For Ike (slow)
TTITLE13=Blues For Ike (medium)
TTITLE14=Dark Eyes (slow)
TTITLE15=Dark Eyes (medium)
EXTD=YEAR: 2000
EXTT0=
EXTT1=
EXTT2=
EXTT3=
EXTT4=
EXTT5=
EXTT6=
EXTT7=
EXTT8=
EXTT9=
EXTT10=
EXTT11=
EXTT12=
EXTT13=
EXTT14=
EXTT15=
PLAYORDER=
